<?xml version="1.0" standalone="no"?>
<!DOCTYPE svg PUBLIC "-//W3C//DTD SVG 20010904//EN"
 "http://www.w3.org/TR/2001/REC-SVG-20010904/DTD/svg10.dtd">
<svg version="1.0" xmlns="http://www.w3.org/2000/svg"
 width="750.000000pt" height="750.000000pt" viewBox="0 0 750.000000 750.000000"
 preserveAspectRatio="xMidYMid meet">
<metadata>
Created by potrace 1.11, written by Peter Selinger 2001-2013
</metadata>
<g transform="translate(0.000000,750.000000) scale(0.100000,-0.100000)"
fill="#000000" stroke="none">
<path d="M3950 7380 c0 -6 -9 -20 -20 -32 -11 -12 -20 -28 -20 -35 0 -7 -4
-13 -10 -13 -5 0 -10 -7 -10 -16 0 -9 -8 -24 -17 -33 -20 -18 -52 -67 -60 -93
-3 -10 -9 -18 -14 -18 -5 0 -9 -7 -9 -15 0 -9 -9 -25 -20 -37 -11 -12 -20 -28
-20 -35 0 -7 -4 -13 -10 -13 -5 0 -10 -7 -10 -15 0 -8 -4 -15 -10 -15 -5 0
-10 -7 -10 -15 0 -8 -4 -15 -10 -15 -5 0 -10 -5 -10 -11 0 -6 -13 -30 -30 -54
-16 -24 -30 -48 -30 -54 0 -6 -4 -11 -10 -11 -5 0 -10 -7 -10 -15 0 -9 -9 -25
-20 -37 -11 -12 -20 -28 -20 -35 0 -7 -3 -13 -8 -13 -4 0 -13 -15 -21 -32 -8
-18 -22 -44 -31 -58 -24 -35 -139 -246 -197 -362 -49 -96 -51 -97 -109 -37
-27 28 -57 59 -68 68 -10 9 -37 36 -60 60 -22 24 -66 70 -96 101 -30 32 -97
102 -149 156 -344 361 -445 454 -497 454 -26 0 -33 -5 -39 -27 -7 -30 -22
-113 -31 -175 -4 -21 -10 -38 -14 -38 -4 0 -10 -19 -13 -42 -8 -59 -23 -135
-37 -183 -6 -22 -15 -58 -20 -80 -11 -49 -29 -126 -42 -180 -5 -22 -12 -55
-15 -73 -3 -18 -9 -35 -14 -38 -5 -3 -9 -20 -9 -39 0 -19 -4 -36 -9 -39 -5 -3
-11 -23 -14 -43 -5 -35 -10 -57 -35 -168 -23 -103 -34 -125 -66 -134 -30 -9
-29 -9 15 -10 l46 -1 12 48 c7 26 17 65 22 87 6 22 15 54 20 71 5 17 9 40 9
52 0 11 4 23 9 26 5 3 11 20 14 38 3 18 11 53 17 78 14 56 28 124 36 173 4 20
10 37 14 37 4 0 10 17 13 38 3 20 11 60 17 87 6 28 13 64 16 80 3 17 9 39 14
50 5 11 11 38 15 60 3 22 8 57 11 78 4 20 10 40 15 43 5 3 9 23 9 44 0 21 5
42 10 45 6 3 10 23 10 44 0 72 30 71 106 -4 17 -16 42 -39 55 -51 13 -11 67
-67 119 -123 203 -220 281 -300 431 -450 165 -165 214 -211 227 -211 16 0 51
46 87 115 21 39 49 90 63 115 13 25 37 68 52 95 15 28 38 68 50 90 13 22 37
65 53 95 17 30 34 57 39 58 4 2 8 12 8 23 0 10 4 19 8 19 8 0 28 33 77 127 12
24 25 40 29 36 3 -3 6 -1 6 6 0 7 14 32 30 56 17 24 30 48 30 54 0 6 4 11 9
11 5 0 11 8 15 18 6 20 28 57 76 132 19 30 42 68 51 85 9 16 23 31 30 33 8 1
34 -29 59 -68 25 -38 48 -70 53 -70 4 0 7 -9 7 -20 0 -11 5 -20 10 -20 6 0 10
-7 10 -15 0 -8 5 -15 10 -15 6 0 10 -7 10 -15 0 -8 5 -15 10 -15 6 0 10 -7 10
-15 0 -8 5 -15 10 -15 6 0 10 -5 10 -10 0 -6 29 -54 64 -108 110 -169 186
-293 234 -381 25 -48 56 -100 69 -117 12 -17 23 -36 23 -43 0 -6 18 -41 40
-77 22 -36 40 -70 40 -75 0 -5 5 -9 10 -9 18 0 11 36 -19 96 -16 32 -40 82
-53 109 -23 49 -97 177 -185 323 -42 69 -231 346 -275 405 -12 15 -26 36 -32
46 -23 39 -100 146 -110 153 -16 11 -26 10 -26 -2z"/>
<path d="M5830 6940 c0 -5 -7 -10 -15 -10 -20 0 -109 -49 -242 -134 -62 -39
-121 -76 -130 -81 -10 -6 -46 -27 -81 -48 -35 -20 -67 -37 -72 -37 -4 0 -10
-3 -12 -7 -3 -8 -69 -46 -115 -68 -13 -5 -23 -13 -23 -17 0 -5 -9 -8 -20 -8
-11 0 -20 -4 -20 -8 0 -4 -17 -14 -37 -21 -21 -8 -40 -17 -43 -20 -3 -4 -54
-31 -115 -61 -60 -30 -111 -58 -113 -62 -2 -5 -12 -8 -23 -8 -10 0 -19 -4 -19
-8 0 -5 -16 -14 -35 -22 -41 -16 -46 -30 -10 -30 14 0 25 3 25 8 0 4 15 13 33
20 17 8 59 27 91 43 32 16 65 29 72 29 7 0 14 4 16 8 2 4 55 33 118 65 120 60
211 108 220 117 3 3 19 12 35 20 17 8 48 26 70 41 22 14 55 32 73 40 17 8 32
17 32 21 0 5 7 8 15 8 8 0 15 4 15 8 0 4 21 21 47 38 130 82 179 113 188 121
6 5 18 12 28 16 10 4 15 11 12 17 -3 5 0 7 8 5 7 -3 22 3 32 15 10 11 13 20 7
20 -7 0 -12 -4 -12 -10z"/>
<path d="M5866 6908 c-7 -34 -17 -108 -36 -263 -6 -49 -15 -121 -20 -160 -5
-38 -14 -106 -20 -150 -5 -44 -16 -125 -24 -180 -17 -110 -32 -245 -40 -343
-3 -44 -1 -64 7 -67 7 -2 77 -8 157 -14 80 -6 170 -15 200 -21 165 -29 512
-82 581 -87 92 -7 105 -22 67 -75 -14 -18 -34 -53 -45 -78 -25 -55 -228 -465
-247 -500 -47 -86 -45 -118 6 -144 36 -17 129 -96 164 -138 6 -7 34 -33 64
-58 29 -25 85 -73 124 -108 39 -35 96 -82 126 -105 30 -23 76 -59 103 -79 l47
-37 -57 -38 c-32 -20 -60 -40 -63 -44 -12 -15 -265 -169 -278 -169 -2 0 -17
-10 -32 -22 -16 -13 -47 -34 -69 -48 -27 -15 -41 -31 -41 -45 0 -21 66 -161
88 -183 10 -11 39 -69 47 -92 1 -3 10 -23 20 -45 36 -79 59 -133 93 -215 6
-14 24 -54 40 -90 16 -36 33 -76 37 -90 4 -14 12 -31 18 -39 19 -23 -17 -40
-61 -30 -51 13 -323 59 -344 59 -27 0 -22 -17 10 -32 27 -13 44 -48 64 -133 5
-22 14 -58 19 -80 26 -102 66 -459 57 -515 -3 -23 -11 -18 -89 62 -59 60 -94
88 -109 88 -22 0 -22 -1 -5 -19 16 -19 16 -23 0 -78 -10 -32 -22 -62 -27 -68
-4 -5 -8 -19 -8 -31 0 -13 -4 -26 -10 -29 -5 -3 -10 -15 -10 -26 0 -10 -4 -19
-10 -19 -5 0 -10 -11 -10 -25 0 -14 -4 -25 -10 -25 -5 0 -10 -7 -10 -15 0 -8
-4 -15 -10 -15 -5 0 -10 -8 -10 -17 0 -10 -9 -29 -20 -43 -11 -14 -20 -31 -20
-37 0 -7 -4 -13 -8 -13 -5 0 -19 -24 -33 -53 -13 -28 -27 -53 -31 -55 -5 -2
-8 -8 -8 -14 0 -13 -65 -104 -103 -143 -36 -38 -87 -110 -87 -124 0 -6 -4 -11
-10 -11 -5 0 -10 -6 -10 -14 0 -8 -13 -28 -29 -45 -17 -18 -29 -33 -28 -34 4
-5 -65 -85 -143 -166 -36 -37 -86 -91 -112 -119 -25 -29 -49 -52 -53 -52 -4 0
-20 -12 -36 -27 -29 -28 -111 -80 -141 -90 -10 -3 -18 -9 -18 -14 0 -5 -9 -9
-20 -9 -11 0 -20 -4 -20 -8 0 -11 -46 -32 -70 -32 -11 0 -20 5 -20 10 0 6 5
10 11 10 6 0 45 35 86 78 73 75 173 216 235 330 81 149 128 243 128 255 0 7 9
32 20 55 11 22 20 50 20 61 0 11 5 23 10 26 6 3 10 17 10 31 0 13 4 32 9 42
25 45 31 128 31 413 l0 302 53 51 c77 73 136 178 164 291 5 22 20 60 34 87 5
10 9 29 9 43 0 14 5 25 10 25 6 0 10 10 10 22 0 12 4 35 9 52 5 17 19 76 31
131 11 55 25 119 30 143 6 23 10 71 10 107 0 37 4 65 10 65 6 0 10 23 10 51 0
31 -4 48 -10 44 -5 -3 -10 -19 -10 -35 0 -16 -4 -32 -10 -35 -5 -3 -10 -26
-10 -51 0 -24 -4 -44 -10 -44 -5 0 -10 -25 -10 -55 0 -30 -4 -55 -10 -55 -5 0
-10 -17 -10 -38 0 -21 -4 -42 -9 -47 -5 -6 -11 -28 -14 -50 -10 -68 -19 -105
-27 -105 -6 0 -11 -15 -41 -120 -6 -19 -15 -46 -21 -60 -6 -14 -14 -34 -18
-45 -4 -11 -22 -49 -39 -83 -17 -35 -31 -68 -31 -73 0 -30 -137 -139 -174
-139 -8 0 -16 -4 -18 -9 -1 -4 -13 -12 -25 -15 -28 -9 -29 -2 -6 144 31 206
27 607 -7 685 -5 11 -18 41 -29 67 -12 26 -32 59 -46 74 -32 34 -40 67 -27
102 28 70 47 193 48 312 1 69 4 148 7 175 4 28 4 41 1 30 -3 -11 -9 -31 -14
-45 -6 -14 -14 -85 -20 -159 -10 -140 -80 -461 -119 -546 -10 -22 -22 -51 -26
-65 -16 -55 -47 -111 -58 -107 -7 2 -13 21 -15 43 -2 21 -8 43 -13 49 -5 5 -9
19 -9 31 0 13 -4 26 -10 29 -5 3 -10 15 -10 26 0 10 -4 19 -10 19 -5 0 -10 7
-10 15 0 8 -3 15 -8 15 -4 0 -13 12 -19 28 -35 79 -46 102 -78 157 -19 33 -40
71 -47 85 -7 14 -18 31 -25 38 -7 7 -13 17 -13 21 0 4 -15 22 -32 42 -18 19
-39 47 -47 62 -8 14 -22 36 -33 46 -10 11 -18 25 -18 31 0 5 -4 10 -10 10 -5
0 -10 4 -10 10 0 10 -21 38 -57 76 -13 13 -23 26 -23 29 0 10 -49 58 -135 131
-145 124 -145 124 -145 161 0 18 -4 33 -8 33 -14 0 -50 -86 -77 -185 -9 -33
-21 -68 -26 -77 -5 -10 -9 -26 -9 -36 0 -11 -6 -32 -14 -48 -16 -32 -70 -227
-88 -314 -6 -30 -13 -62 -16 -70 -8 -21 -9 -28 -11 -42 -1 -7 -16 10 -33 37
-18 28 -35 52 -39 55 -3 3 -14 20 -24 38 -11 17 -22 32 -26 32 -4 0 -15 20
-25 45 -9 25 -21 45 -25 45 -5 0 -9 8 -9 18 -1 16 -1 16 -10 0 -11 -17 15 -88
32 -88 4 0 8 -7 8 -15 0 -52 150 -234 177 -216 6 3 14 26 18 51 4 25 18 88 32
140 14 52 27 105 30 118 3 12 9 25 14 28 5 3 9 21 9 40 0 19 4 34 9 34 5 0 12
16 15 35 3 19 9 51 12 70 3 19 10 35 15 35 5 0 9 13 9 29 0 17 5 33 10 36 6 3
10 15 10 26 0 10 6 29 13 42 6 12 13 23 14 25 3 8 142 -109 211 -178 76 -77
162 -183 162 -200 0 -6 5 -10 10 -10 6 0 10 -4 10 -10 0 -9 19 -35 48 -65 6
-8 12 -18 12 -24 0 -6 5 -11 10 -11 6 0 10 -6 10 -14 0 -8 3 -16 8 -18 8 -4
35 -48 60 -98 9 -19 20 -36 25 -38 4 -2 7 -10 7 -17 0 -7 3 -15 8 -17 4 -1 18
-25 31 -53 13 -27 32 -67 42 -88 27 -56 25 -73 -12 -81 -17 -3 -39 -2 -49 4
-16 8 -676 24 -947 21 -130 -1 -115 -15 -133 128 -10 88 -14 451 -4 451 11 0
34 -29 34 -44 0 -8 5 -18 11 -22 12 -7 11 4 -7 119 -6 36 -24 53 -24 22 0 -8
-4 -15 -9 -15 -14 0 -29 -49 -40 -133 -13 -94 -15 -472 -2 -495 5 -9 10 -42
12 -72 l4 -55 -40 3 c-22 2 -44 8 -49 13 -6 5 -16 9 -23 9 -18 0 -107 42 -111
52 -2 4 -10 8 -17 8 -7 0 -15 4 -17 8 -1 5 -24 23 -50 41 -27 17 -48 36 -48
41 0 6 -5 10 -11 10 -13 0 -52 39 -114 115 -22 26 -46 54 -52 61 -7 7 -13 17
-13 23 0 6 -4 11 -10 11 -5 0 -10 5 -10 11 0 6 -13 29 -28 52 -15 23 -34 56
-42 72 -8 17 -17 32 -20 35 -12 12 -30 51 -30 65 0 8 -4 15 -10 15 -5 0 -10 9
-10 20 0 11 -4 20 -8 20 -5 0 -15 19 -22 43 -8 23 -17 44 -20 47 -5 5 -15 25
-38 80 -6 14 -21 54 -33 90 -12 36 -25 71 -29 79 -12 23 -21 -46 -9 -76 6 -15
12 -49 15 -76 5 -52 -13 -104 -77 -217 -8 -14 -16 -27 -19 -30 -11 -11 -81
-160 -110 -235 -17 -44 -47 -116 -66 -160 -45 -103 -55 -126 -64 -150 -4 -11
-13 -33 -19 -48 -6 -15 -11 -40 -11 -54 0 -51 -38 5 -90 132 -5 11 -11 38 -15
60 -4 22 -11 63 -16 90 -6 28 -15 89 -21 138 -6 51 -15 87 -22 87 -6 -1 -31
-30 -56 -65 -25 -36 -48 -65 -52 -65 -5 0 -8 -5 -8 -11 0 -5 -13 -24 -30 -42
-16 -18 -30 -38 -30 -44 0 -7 -4 -13 -10 -13 -5 0 -28 -28 -51 -62 -24 -35
-45 -65 -48 -68 -11 -9 -41 -64 -72 -127 -16 -35 -35 -63 -42 -63 -13 0 -37
45 -37 70 0 9 -5 21 -12 28 -15 15 -15 217 0 235 5 7 12 28 15 47 3 19 11 55
17 80 21 83 23 100 11 100 -6 0 -11 -13 -11 -30 0 -16 -4 -30 -10 -30 -5 0
-10 -13 -10 -29 0 -17 -4 -32 -8 -35 -10 -6 -29 -87 -37 -156 -3 -25 -10 -76
-15 -115 -25 -173 -27 -654 -4 -879 l6 -59 -28 7 c-16 4 -44 10 -61 13 -18 3
-33 9 -33 14 0 5 -5 9 -12 9 -27 0 -144 65 -185 103 -48 45 -104 123 -140 197
-91 186 -113 235 -113 251 0 11 -4 19 -10 19 -5 0 -10 10 -10 23 0 13 -4 27
-9 33 -4 5 -14 30 -21 57 -7 26 -17 50 -21 53 -5 3 -9 14 -9 25 0 10 -4 19
-10 19 -5 0 -10 12 -11 28 l-1 27 -8 -28 c-5 -16 -5 -39 0 -50 4 -12 14 -42
21 -67 7 -25 16 -49 21 -54 4 -6 8 -16 8 -23 0 -7 9 -35 21 -61 12 -26 24 -56
29 -67 15 -41 151 -308 159 -315 12 -10 61 -90 61 -100 0 -5 4 -10 9 -10 4 0
25 -41 46 -92 29 -68 39 -109 41 -158 2 -36 5 -117 8 -181 3 -65 12 -135 20
-160 9 -24 16 -55 16 -68 0 -36 21 -143 31 -163 5 -10 9 -31 9 -47 0 -17 5
-33 10 -36 6 -3 10 -19 10 -34 0 -15 3 -31 7 -35 4 -4 13 -26 19 -49 16 -55
49 -149 62 -173 11 -21 24 -53 43 -104 15 -40 73 -142 92 -162 21 -22 94 -132
117 -177 l21 -43 -43 7 c-43 7 -241 98 -267 123 -7 7 -31 20 -52 29 -21 8 -36
19 -33 24 3 5 -2 9 -10 9 -9 0 -16 5 -16 10 0 6 -6 10 -14 10 -8 0 -16 4 -18
9 -1 5 -25 24 -53 43 -27 18 -51 37 -52 41 -2 8 -71 90 -150 177 -24 26 -68
95 -99 155 -31 60 -62 118 -69 129 -41 66 -105 205 -106 231 -1 16 -4 41 -8
54 l-7 24 -17 -26 c-9 -14 -17 -30 -17 -35 0 -4 -9 -25 -20 -47 -11 -22 -20
-47 -20 -57 0 -10 -4 -26 -9 -36 -5 -9 -12 -25 -15 -34 -7 -24 -36 -23 -36 1
0 11 -5 23 -10 26 -5 3 -10 17 -10 31 0 13 -4 24 -10 24 -5 0 -10 10 -10 22 0
23 -16 81 -31 110 -5 10 -9 33 -9 51 0 18 -4 37 -9 43 -5 5 -12 72 -15 149 -3
77 -10 208 -16 290 -5 83 -13 241 -16 353 -3 111 -10 202 -15 202 -5 0 -9 -22
-9 -49 0 -28 -5 -53 -10 -56 -6 -4 -10 -71 -10 -169 0 -90 -5 -177 -11 -193
-10 -32 -54 -59 -134 -84 -22 -7 -44 -17 -50 -21 -5 -4 -19 -8 -32 -8 -13 0
-23 -4 -23 -10 0 -5 -12 -10 -26 -10 -24 0 -26 3 -21 33 3 17 11 52 17 77 6
25 14 59 16 75 3 17 10 41 16 55 26 60 48 132 48 153 0 9 5 17 10 17 6 0 10
11 10 25 0 14 5 25 10 25 6 0 10 11 10 25 0 14 5 25 10 25 6 0 10 11 10 25 0
14 5 25 10 25 6 0 10 7 10 15 0 9 9 35 20 57 11 23 20 45 20 50 0 8 34 88 51
120 18 36 10 72 -23 98 -17 14 -41 34 -52 45 -12 11 -37 31 -56 45 -19 13 -37
27 -40 30 -5 5 -36 21 -130 69 -19 10 -57 30 -85 45 -27 14 -85 43 -127 64
-43 20 -78 43 -78 50 0 16 137 154 220 222 59 48 106 89 124 106 6 5 46 36 88
67 42 32 89 68 104 82 15 14 31 25 35 25 20 0 6 31 -29 63 -74 70 -100 92
-132 117 -18 14 -38 30 -44 35 -6 6 -38 31 -71 55 -33 25 -102 78 -152 118
-81 64 -91 75 -79 88 8 8 23 14 33 14 11 0 38 9 61 20 22 11 48 20 57 20 8 0
15 5 15 10 0 6 11 10 24 10 14 0 28 5 31 10 3 6 15 10 26 10 10 0 19 5 19 10
0 6 9 10 19 10 11 0 23 5 26 10 3 6 15 10 26 10 10 0 19 5 19 10 0 6 9 10 20
10 11 0 20 5 20 10 0 6 6 10 14 10 17 0 100 42 104 53 2 4 10 7 19 7 8 0 27 8
41 18 15 11 42 25 59 33 18 8 33 16 33 20 0 3 16 11 35 19 19 8 35 17 35 22 0
4 6 8 13 8 8 0 21 8 30 18 14 16 14 19 -3 42 -11 14 -20 32 -20 41 0 14 -27
80 -50 121 -6 10 -10 27 -10 38 0 11 -4 20 -10 20 -5 0 -10 9 -10 20 0 11 -4
20 -10 20 -5 0 -10 9 -10 20 0 11 -4 20 -10 20 -5 0 -10 7 -10 15 0 14 -18 53
-30 65 -12 12 -30 51 -30 65 0 8 -4 15 -10 15 -5 0 -10 9 -10 20 0 11 -4 20
-10 20 -5 0 -10 6 -10 13 0 18 -24 67 -32 67 -5 0 -8 6 -8 14 0 8 -3 16 -8 18
-4 2 -23 35 -42 73 -19 39 -38 72 -42 73 -5 2 -8 12 -8 22 0 10 -4 22 -10 25
-5 3 -10 16 -9 28 0 12 3 16 6 10 2 -7 12 -13 22 -13 9 0 21 -4 26 -8 6 -5 37
-19 70 -31 33 -13 71 -28 85 -33 14 -6 35 -15 48 -19 12 -5 32 -13 45 -18 12
-5 38 -14 57 -21 19 -7 44 -16 55 -20 11 -4 54 -18 95 -30 41 -12 83 -26 92
-31 10 -5 28 -9 41 -9 13 0 27 -4 32 -9 12 -11 82 -21 200 -27 58 -4 86 -2 80
4 -5 6 -30 12 -55 15 -25 3 -67 11 -95 17 -27 6 -65 14 -83 17 -18 3 -35 9
-38 14 -3 5 -17 9 -31 9 -27 0 -84 16 -115 31 -10 5 -27 9 -37 9 -11 0 -23 5
-26 10 -3 6 -19 10 -35 10 -16 0 -31 4 -34 8 -3 4 -28 14 -56 22 -28 8 -53 18
-56 22 -3 4 -12 8 -20 8 -8 0 -34 9 -56 20 -23 11 -50 20 -60 20 -10 0 -18 5
-18 10 0 6 -9 10 -19 10 -11 0 -23 5 -26 10 -3 6 -19 10 -36 10 -16 0 -29 5
-29 10 0 6 -13 10 -30 10 -16 0 -30 -4 -30 -9 0 -24 43 -137 71 -188 93 -169
85 -155 128 -242 17 -35 31 -70 31 -77 0 -8 5 -14 10 -14 6 0 10 -9 10 -20 0
-11 5 -20 10 -20 6 0 10 -6 10 -13 0 -7 9 -32 20 -55 11 -22 20 -48 20 -57 0
-8 5 -15 10 -15 6 0 10 -9 10 -20 0 -11 5 -20 10 -20 6 0 10 -9 10 -20 0 -19
18 -59 31 -70 13 -10 16 -64 5 -74 -6 -6 -33 -22 -61 -36 -27 -14 -52 -27 -55
-30 -3 -3 -27 -16 -55 -30 -27 -14 -51 -28 -53 -32 -2 -5 -15 -8 -28 -8 -13 0
-24 -4 -24 -10 0 -5 -7 -10 -15 -10 -8 0 -15 -4 -15 -10 0 -5 -9 -10 -20 -10
-11 0 -20 -4 -20 -10 0 -5 -7 -10 -15 -10 -8 0 -23 -4 -33 -9 -74 -37 -106
-51 -118 -51 -8 0 -14 -4 -14 -10 0 -5 -11 -10 -25 -10 -14 0 -25 -4 -25 -10
0 -5 -11 -10 -25 -10 -14 0 -25 -4 -25 -10 0 -5 -11 -10 -25 -10 -14 0 -25 -4
-25 -10 0 -5 -7 -10 -15 -10 -16 0 -51 -18 -72 -37 -19 -17 -9 -32 53 -83 31
-25 69 -57 85 -73 16 -15 31 -27 34 -27 3 0 13 -7 22 -14 10 -8 68 -55 128
-105 61 -49 124 -101 140 -115 l30 -26 -55 -51 c-30 -29 -88 -76 -127 -106
-40 -30 -73 -58 -73 -63 0 -6 -5 -10 -11 -10 -6 0 -16 -6 -24 -12 -7 -7 -32
-29 -55 -48 -69 -56 -240 -230 -240 -243 0 -13 62 -57 80 -57 5 0 10 -4 10
-10 0 -5 7 -10 15 -10 8 0 15 -4 15 -8 0 -5 12 -15 28 -23 15 -8 29 -16 32
-19 9 -9 63 -39 120 -67 30 -15 57 -30 60 -33 3 -3 21 -12 40 -20 19 -8 37
-17 40 -20 3 -4 40 -24 83 -45 79 -38 79 -38 73 -71 -3 -19 -9 -50 -12 -69 -3
-19 -10 -38 -15 -41 -5 -3 -9 -16 -9 -30 0 -13 -4 -32 -9 -42 -5 -9 -19 -44
-31 -77 -12 -33 -26 -68 -31 -77 -5 -10 -9 -27 -9 -37 0 -11 -4 -23 -10 -26
-5 -3 -10 -15 -10 -25 0 -11 -9 -35 -20 -55 -11 -20 -20 -46 -20 -60 0 -13 -4
-27 -10 -30 -5 -3 -10 -24 -10 -45 0 -21 -4 -41 -9 -44 -10 -6 -19 -56 -27
-148 -3 -32 -9 -58 -13 -58 -4 0 -7 -9 -8 -20 -2 -17 4 -20 42 -20 24 0 47 5
50 10 3 6 24 10 45 10 21 0 42 5 45 10 3 6 21 10 40 10 19 0 37 5 40 10 9 15
41 12 55 -5 7 -8 16 -72 21 -152 11 -170 18 -225 30 -237 5 -6 9 -25 9 -42 0
-18 5 -36 10 -39 6 -3 10 -19 10 -36 0 -16 5 -29 10 -29 6 0 10 -7 10 -15 0
-24 24 -95 32 -95 5 0 8 -7 8 -15 0 -8 5 -24 10 -35 5 -11 14 -29 20 -40 19
-38 35 -64 48 -78 11 -12 15 -12 26 3 7 9 18 38 25 64 7 25 17 54 22 63 5 10
9 25 9 33 0 34 20 10 59 -69 23 -46 41 -89 41 -94 0 -6 4 -12 8 -14 10 -4 92
-124 92 -135 1 -4 14 -24 30 -43 17 -19 30 -40 30 -46 0 -7 3 -14 8 -16 4 -2
25 -28 47 -58 66 -90 236 -256 307 -298 16 -9 28 -20 28 -24 0 -4 7 -8 15 -8
23 0 50 -29 70 -75 28 -65 40 -90 45 -95 3 -3 12 -18 20 -35 18 -35 34 -56 78
-101 17 -18 32 -36 32 -40 0 -4 14 -20 30 -36 17 -15 30 -31 30 -33 0 -8 78
-83 160 -155 41 -36 77 -67 80 -71 3 -3 29 -20 58 -39 28 -18 52 -37 52 -42 0
-4 5 -8 10 -8 12 0 73 -41 78 -52 2 -5 12 -8 22 -8 10 0 20 -4 22 -8 3 -8 91
-52 188 -94 25 -11 53 -24 62 -29 10 -5 27 -9 37 -9 11 0 22 -4 25 -9 3 -5 18
-11 33 -14 16 -3 46 -11 68 -17 22 -6 63 -16 90 -21 28 -5 73 -14 100 -20 28
-5 74 -12 103 -15 29 -4 55 -10 58 -15 7 -12 547 -12 559 0 6 5 30 12 55 15
25 3 74 10 110 16 36 6 89 13 118 16 28 3 52 10 52 15 0 5 11 9 25 9 14 0 35
5 48 12 47 24 57 28 72 28 8 0 15 5 15 10 0 6 5 10 12 10 11 0 138 60 148 70
3 3 24 18 47 33 23 16 61 46 85 68 24 22 57 46 73 54 17 9 44 28 61 43 18 15
55 47 84 71 28 24 64 56 78 71 100 102 152 159 152 168 0 6 4 12 8 14 13 5
104 126 148 198 22 36 64 112 93 170 33 67 71 126 103 160 28 30 80 91 117
135 36 44 74 89 84 100 10 11 37 45 60 75 23 30 50 64 60 74 9 11 17 25 17 30
0 6 12 24 26 41 14 16 32 44 41 62 8 18 19 33 24 33 5 0 9 7 9 15 0 8 5 15 10
15 6 0 10 7 10 15 0 8 4 15 8 15 5 0 14 16 22 35 8 19 17 35 22 35 4 0 8 7 8
15 0 8 9 30 19 48 28 50 38 69 48 97 6 14 15 36 21 50 5 14 15 41 22 60 15 42
29 79 41 102 5 10 9 25 9 33 0 23 14 18 53 -17 84 -77 98 -88 112 -88 8 0 15
3 16 8 0 4 2 27 4 52 13 165 -6 455 -35 525 -4 11 -13 40 -20 65 -7 25 -19 59
-26 77 -8 17 -14 34 -14 38 0 8 67 1 219 -25 158 -26 151 -27 151 14 0 68 -85
267 -301 711 -22 44 -39 83 -39 86 0 7 67 51 140 92 204 114 390 244 390 273
0 23 -33 55 -151 146 -41 31 -90 72 -110 90 -41 38 -73 66 -149 128 -30 25
-60 49 -66 55 -6 5 -26 21 -44 35 -18 14 -44 35 -59 47 -14 13 -32 23 -38 23
-7 0 -13 5 -13 10 0 6 -7 10 -15 10 -8 0 -15 5 -15 10 0 6 -7 10 -15 10 -9 0
-15 9 -15 25 0 14 5 25 10 25 6 0 10 7 10 15 0 8 5 15 10 15 6 0 10 6 10 13 0
18 24 67 33 67 4 0 7 9 7 20 0 11 5 20 10 20 6 0 10 9 10 19 0 11 3 21 8 23 7
3 39 67 64 126 7 17 16 32 20 32 5 0 8 6 8 14 0 16 62 140 73 144 4 2 7 14 7
27 0 13 4 25 8 27 12 5 72 128 72 149 0 9 -7 20 -16 23 -9 3 -111 20 -227 36
-116 17 -229 35 -251 40 -103 22 -282 41 -398 41 -70 -1 -129 3 -132 8 -3 5
-1 46 5 92 5 46 14 122 19 169 5 47 14 117 20 155 22 142 40 308 55 495 3 41
11 112 17 158 8 57 8 86 1 93 -7 7 -13 0 -17 -23z m-2512 -2650 c10 -24 24
-57 32 -75 8 -17 14 -34 14 -37 0 -4 11 -24 25 -46 14 -22 25 -46 25 -54 0 -8
-17 -41 -38 -73 -100 -153 -88 -178 89 -186 63 -3 115 -6 115 -6 1 -1 15 -14
32 -29 17 -16 47 -43 67 -61 24 -21 34 -36 28 -42 -6 -6 -112 -13 -236 -16
-125 -3 -227 -10 -227 -14 0 -4 -33 -10 -72 -13 -40 -3 -99 -8 -130 -12 -66
-7 -70 -1 -43 63 8 19 15 42 15 51 0 9 9 36 21 61 28 62 36 80 48 120 6 18 23
54 39 80 28 47 118 227 147 294 9 20 19 37 24 37 4 0 15 -19 25 -42z m175
-346 c17 -27 31 -52 31 -55 0 -4 -27 -7 -59 -7 -59 0 -60 0 -55 27 4 23 39 83
49 83 1 0 17 -22 34 -48z m-806 -44 c3 -11 -1 -34 -9 -51 -19 -37 -11 -72 21
-93 19 -12 25 -25 25 -50 0 -19 5 -34 10 -34 6 0 10 -15 10 -33 0 -48 -27 -57
-170 -57 -97 0 -120 3 -120 14 0 8 6 21 13 28 6 7 19 27 27 43 8 17 25 41 38
55 12 14 25 33 28 43 3 9 10 17 15 17 5 0 9 5 9 11 0 5 14 24 30 42 17 18 36
44 43 60 14 33 23 34 30 5z m1722 -494 c50 -9 151 -20 225 -24 124 -8 178 -15
315 -41 28 -6 70 -13 95 -16 25 -3 49 -9 55 -14 5 -5 18 -9 29 -9 32 0 312
-67 338 -81 10 -5 26 -9 35 -9 21 0 94 -25 133 -45 35 -18 42 -39 30 -85 -17
-67 -38 -165 -48 -224 -10 -62 -9 -62 41 -98 25 -19 44 -102 62 -272 9 -82 20
-157 26 -167 12 -23 12 -86 -1 -94 -5 -3 -10 -15 -10 -26 0 -26 -62 -210 -98
-290 -35 -77 -103 -170 -187 -254 -69 -69 -101 -95 -115 -95 -6 0 -10 -3 -10
-8 0 -4 -17 -15 -39 -24 -21 -9 -45 -23 -52 -30 -8 -7 -41 -27 -74 -44 -120
-62 -150 -79 -153 -86 -2 -5 -10 -8 -18 -8 -8 0 -27 -8 -41 -17 -34 -22 -91
-43 -120 -43 -12 0 -24 -4 -27 -9 -8 -12 -322 -23 -384 -13 -76 13 -82 -3 -58
-150 4 -25 1 -28 -24 -28 -16 0 -32 -4 -35 -10 -3 -5 -21 -10 -40 -10 -19 0
-36 -4 -39 -9 -3 -5 -23 -11 -43 -14 -21 -3 -58 -11 -83 -18 -58 -15 -162 -15
-220 0 -25 7 -62 15 -83 18 -20 3 -40 9 -43 14 -3 5 -20 9 -39 9 -19 0 -36 4
-39 9 -3 5 -23 11 -43 14 -95 14 -144 28 -163 47 -3 3 -18 13 -35 22 -20 11
-34 30 -43 60 -8 24 -18 51 -23 60 -5 10 -9 23 -9 29 0 29 -36 38 -152 39 -67
0 -119 4 -123 10 -3 6 -33 10 -65 10 -32 0 -62 5 -65 10 -3 6 -24 10 -45 10
-21 0 -42 5 -45 10 -3 6 -19 10 -35 10 -16 0 -32 5 -35 10 -3 6 -17 10 -30 10
-13 0 -27 5 -30 10 -3 6 -17 10 -30 10 -36 0 -207 91 -337 181 -15 11 -31 19
-36 19 -36 0 -187 208 -205 283 -13 50 -15 488 -3 597 4 41 12 89 17 107 l10
31 61 -5 61 -6 -7 39 c-10 54 -27 454 -21 480 3 13 21 29 42 39 21 10 71 33
111 52 82 38 166 63 217 63 19 0 36 4 39 9 3 4 36 11 73 14 38 3 97 11 133 16
36 6 95 8 131 4 44 -4 69 -2 73 6 5 8 81 11 249 12 133 0 260 4 282 8 22 5
195 9 385 10 273 0 364 -3 435 -15z m-2068 -1785 c21 -12 40 -24 43 -28 8 -10
98 -71 105 -71 3 0 13 -6 20 -14 8 -8 49 -28 92 -46 43 -17 91 -38 107 -46 16
-8 39 -14 52 -14 13 0 25 -4 28 -9 6 -8 36 -15 136 -27 25 -4 50 -10 55 -14
13 -11 261 -17 300 -7 52 12 56 2 56 -135 0 -74 -5 -136 -12 -154 -31 -76 -42
-97 -60 -115 -19 -19 -20 -19 -59 3 -22 13 -40 28 -40 35 0 7 -11 25 -24 40
-20 23 -28 26 -43 17 -33 -20 -49 -59 -35 -88 10 -22 18 -26 57 -26 25 0 45
-4 45 -8 0 -5 11 -14 25 -20 25 -11 34 -45 16 -57 -6 -3 -16 -18 -24 -33 -8
-15 -29 -53 -46 -84 -46 -82 -54 -111 -60 -223 l-6 -100 -32 -3 c-19 -2 -33 1
-33 7 0 6 -9 11 -20 11 -11 0 -35 9 -53 19 -19 11 -45 25 -58 33 -13 7 -25 14
-27 15 -2 1 1 11 7 22 9 16 8 26 -5 46 -9 14 -13 25 -10 25 4 0 -6 12 -21 27
-27 27 -53 83 -53 115 0 8 11 32 25 52 14 20 25 39 25 41 0 3 -14 5 -31 5 -18
0 -41 -10 -57 -25 -48 -44 -90 -75 -102 -75 -16 0 -100 81 -100 97 0 7 -5 22
-12 32 -10 16 -8 28 12 65 13 26 29 51 37 57 23 19 14 29 -14 17 -32 -14 -115
-69 -125 -83 -4 -5 -2 -15 3 -21 7 -8 6 -15 -2 -20 -7 -4 -15 -2 -17 4 -2 7
-12 12 -23 12 -10 0 -19 5 -19 10 0 6 -10 21 -22 34 -54 56 -90 109 -107 161
-8 22 -19 43 -25 47 -6 4 -7 10 -3 14 6 7 27 0 79 -27 10 -5 31 -9 48 -9 16 0
30 -4 30 -10 0 -6 27 -10 60 -10 54 0 60 2 60 21 0 17 -30 71 -50 89 -3 3 -12
19 -20 35 -8 17 -22 42 -32 57 -10 14 -18 33 -18 42 0 9 -4 16 -10 16 -5 0
-10 7 -10 15 0 8 -3 15 -7 15 -5 0 -13 10 -19 23 -6 12 -25 48 -43 81 -17 32
-31 66 -31 76 0 11 -4 22 -10 25 -5 3 -10 19 -10 36 0 27 2 29 40 29 22 0 56
-10 77 -21z m3131 -163 c-7 -7 -38 -41 -68 -76 -30 -34 -64 -72 -75 -84 -11
-11 -38 -44 -59 -73 -22 -29 -45 -54 -53 -57 -21 -9 -15 -29 7 -23 11 3 20 2
20 -2 0 -10 69 -1 76 10 3 5 14 9 25 9 10 0 19 5 19 10 0 6 9 10 20 10 11 0
20 5 20 10 0 6 9 10 20 10 11 0 20 5 20 10 0 6 9 10 20 10 11 0 20 5 20 10 0
6 9 10 20 10 11 0 20 4 20 8 0 5 18 18 40 30 22 11 40 17 40 13 0 -14 -69
-151 -117 -231 -24 -41 -50 -84 -56 -95 -7 -11 -23 -29 -36 -40 -14 -11 -33
-28 -42 -37 -10 -10 -21 -14 -23 -9 -3 5 -23 11 -45 14 -22 3 -52 15 -67 26
-15 12 -29 20 -30 18 -2 -2 -5 -24 -7 -50 -3 -37 0 -50 13 -60 10 -7 18 -15
19 -19 1 -4 4 -14 7 -22 7 -18 -24 -66 -41 -66 -8 0 -17 9 -20 20 -4 11 -17
33 -31 48 -13 15 -28 32 -33 38 -5 7 -11 27 -13 45 -4 36 -3 37 -28 -26 -4
-11 -13 -53 -19 -94 -6 -40 -15 -79 -18 -85 -4 -6 -8 -16 -9 -22 -6 -38 -42
-87 -89 -120 -30 -22 -54 -45 -55 -53 0 -7 -6 -11 -14 -8 -8 3 -25 -2 -38 -11
-39 -29 -67 -42 -88 -42 -18 0 -20 7 -20 78 -1 111 -31 204 -91 280 -23 30
-25 52 -4 52 8 0 15 4 15 8 0 5 12 15 28 22 15 8 35 20 44 28 9 8 22 11 28 7
6 -4 22 1 35 9 41 27 26 106 -20 106 -27 0 -55 -29 -55 -57 0 -12 -5 -23 -11
-23 -6 0 -23 -9 -39 -20 -15 -11 -42 -21 -61 -22 -29 -3 -35 1 -58 43 -14 26
-43 76 -64 111 -41 72 -67 146 -67 196 0 27 4 32 23 32 13 0 28 -5 34 -11 13
-13 300 -6 363 9 25 6 65 16 90 22 25 7 62 14 83 17 20 3 37 9 37 13 0 4 12
10 28 13 68 14 88 19 107 27 11 4 36 14 55 21 19 7 37 15 40 18 3 3 23 15 45
27 22 11 49 25 60 31 11 6 34 16 50 23 17 7 37 16 45 20 8 4 20 1 28 -7 11
-11 11 -15 0 -27z m-1914 -479 c27 -4 54 -12 61 -17 7 -5 25 -11 41 -12 17 -1
43 -15 61 -32 30 -28 33 -37 33 -88 0 -52 -2 -58 -24 -64 -30 -7 -150 22 -194
47 -18 10 -45 19 -60 19 -25 1 -25 2 -9 14 26 20 21 28 -14 21 -32 -7 -109 19
-109 37 0 13 18 10 24 -4 4 -9 5 -8 4 2 -2 23 24 100 32 95 4 -3 10 4 13 15 5
19 6 19 48 -4 24 -12 66 -26 93 -29z m816 3 c0 -5 -7 -7 -15 -4 -8 4 -15 8
-15 10 0 2 7 4 15 4 8 0 15 -4 15 -10z m-12 -22 c9 -9 12 -9 12 0 0 28 29 9
49 -32 11 -25 25 -47 31 -51 20 -12 10 -25 -15 -19 -25 6 -36 -10 -12 -19 6
-3 -9 -6 -35 -6 -29 -1 -53 -7 -63 -17 -9 -10 -33 -19 -52 -21 -20 -2 -44 -8
-54 -13 -10 -6 -28 -10 -40 -10 -16 0 -20 5 -16 20 3 11 1 20 -3 20 -5 0 -11
-10 -13 -22 -3 -14 -5 -8 -6 15 0 23 3 36 9 32 6 -3 10 1 10 9 0 9 -4 16 -10
16 -21 0 27 65 51 68 13 2 28 8 34 13 13 13 38 11 29 -3 -5 -8 -2 -9 10 -5 10
4 20 7 22 7 2 0 4 7 4 15 0 18 41 20 58 3z m-1041 -184 c-3 -3 -13 0 -21 9 -8
8 -12 18 -9 21 4 4 14 0 22 -9 8 -8 12 -17 8 -21z m70 -22 c-23 -5 -47 4 -47
17 0 6 13 5 33 -2 23 -8 27 -12 14 -15z m1133 -1 c0 -5 -20 -11 -45 -13 -45
-3 -49 7 -5 15 43 8 50 7 50 -2z m-1258 -38 c10 -12 15 -38 14 -80 -1 -35 2
-63 6 -63 5 0 8 17 8 37 0 50 10 37 12 -17 1 -34 -3 -46 -23 -61 -32 -24 -49
-24 -49 2 0 11 5 17 10 14 6 -3 10 -1 10 4 0 6 -5 11 -11 11 -7 0 -9 15 -7 43
3 27 -1 52 -10 69 -13 22 -13 29 -3 42 17 20 24 20 43 -1z m1145 11 c-3 -3
-12 -4 -19 -1 -8 3 -5 6 6 6 11 1 17 -2 13 -5z m-1001 -65 c-7 11 -2 12 25 6
59 -13 272 -18 264 -6 -4 7 5 11 24 11 16 0 32 -6 34 -12 4 -10 8 -9 16 2 8
11 13 12 19 4 8 -13 132 -16 132 -4 0 16 45 19 60 5 9 -8 20 -12 23 -8 4 3 8
-34 9 -83 l2 -89 5 84 6 83 45 6 c25 3 56 4 70 4 14 -1 82 -4 151 -8 l126 -6
12 -61 c6 -34 13 -72 14 -83 1 -13 7 -19 15 -17 10 5 17 -15 13 -39 -2 -13 27
-9 31 3 3 9 9 9 25 0 12 -6 34 -11 50 -11 26 0 24 -3 -27 -40 -30 -22 -65 -40
-76 -40 -12 0 -24 -7 -28 -15 -3 -8 -12 -15 -21 -15 -9 0 -27 -7 -40 -16 -17
-11 -36 -14 -55 -10 -17 3 -30 1 -30 -4 0 -6 -11 -10 -25 -10 -14 0 -25 -5
-25 -11 0 -8 -12 -10 -36 -6 -25 4 -37 2 -41 -9 -6 -16 -34 -19 -49 -4 -12 12
-47 2 -38 -11 6 -10 -50 -13 -226 -10 -146 3 -336 27 -367 47 -12 8 -35 14
-51 14 -34 0 -88 25 -95 44 -3 7 -17 14 -31 14 -23 0 -126 57 -126 69 0 3 17
3 38 1 47 -6 81 9 88 39 4 13 10 23 14 23 10 0 29 85 32 146 l3 41 25 -16 c18
-12 22 -12 16 -2z m-106 1 c0 -5 -4 -10 -10 -10 -5 0 -10 5 -10 10 0 6 5 10
10 10 6 0 10 -4 10 -10z m-83 -67 c-2 -16 -4 -5 -4 22 0 28 2 40 4 28 2 -13 2
-35 0 -50z m1290 20 c-3 -10 -5 -4 -5 12 0 17 2 24 5 18 2 -7 2 -21 0 -30z
m114 -29 c6 -11 9 -38 7 -60 -2 -31 -7 -39 -23 -39 -18 0 -20 8 -23 68 -2 42
1 67 8 67 5 0 11 8 11 18 1 9 4 6 6 -8 2 -14 8 -34 14 -46z m-1464 9 c-3 -10
-5 -4 -5 12 0 17 2 24 5 18 2 -7 2 -21 0 -30z m0 -65 c-3 -7 -5 -2 -5 12 0 14
2 19 5 13 2 -7 2 -19 0 -25z"/>
<path d="M2798 3213 c-65 -17 -82 -38 -37 -48 16 -4 42 -13 57 -20 15 -8 70
-23 122 -34 90 -19 131 -33 245 -85 28 -13 65 -29 83 -37 17 -8 32 -17 32 -21
0 -5 8 -8 18 -8 10 0 22 -4 28 -9 5 -5 19 -12 31 -15 70 -21 -72 138 -167 188
-30 15 -67 35 -81 42 -113 60 -221 76 -331 47z m186 -29 c33 -9 81 -26 106
-38 25 -13 70 -36 101 -51 64 -32 131 -85 106 -85 -9 0 -31 9 -49 19 -59 35
-360 141 -399 141 -9 0 -22 7 -29 15 -11 13 -5 15 45 15 31 0 85 -7 119 -16z"/>
<path d="M5005 3209 c-132 -32 -157 -41 -235 -81 -82 -42 -159 -108 -190 -163
l-20 -35 27 6 c14 4 69 28 122 54 137 68 205 94 296 114 44 9 112 26 150 37
39 10 81 20 95 21 14 2 25 9 25 18 0 11 -12 15 -48 14 -27 0 -52 -5 -55 -10
-4 -6 -34 -16 -67 -24 -127 -28 -252 -70 -363 -123 -34 -17 -65 -27 -68 -24
-5 5 -2 8 46 48 33 27 158 86 212 100 84 21 183 38 226 38 45 1 56 15 20 25
-38 10 -89 5 -173 -15z"/>
<path d="M4979 3011 c-31 -5 -77 -18 -101 -30 -24 -11 -52 -21 -61 -21 -9 0
-17 -4 -17 -10 0 -5 -9 -10 -21 -10 -37 0 -169 -101 -224 -172 -46 -59 -55
-72 -55 -84 0 -21 22 -17 50 9 36 33 86 67 99 67 6 0 11 -15 11 -34 0 -35 13
-55 25 -36 9 15 80 12 120 -4 42 -18 75 -69 75 -114 0 -25 -8 -42 -31 -63 -27
-25 -39 -29 -90 -29 -33 0 -59 4 -59 10 0 6 -9 10 -21 10 -16 0 -19 -4 -14
-17 5 -10 10 -34 13 -53 2 -19 13 -47 23 -62 11 -14 19 -29 19 -32 0 -11 63
-76 73 -76 5 0 23 -10 40 -22 29 -21 42 -23 136 -21 58 2 109 7 115 13 5 5 20
10 33 10 13 0 23 5 23 10 0 6 6 10 13 10 7 0 37 21 66 47 60 53 97 122 105
198 17 147 18 175 7 175 -6 0 -11 15 -11 34 0 19 -4 38 -10 41 -12 7 -14 45
-2 44 4 0 21 -9 37 -20 17 -10 40 -24 53 -30 17 -10 22 -21 23 -58 5 -153 -17
-260 -67 -328 -13 -17 -24 -39 -24 -49 0 -19 17 -2 69 66 14 19 29 37 32 40 4
3 18 28 33 56 47 90 69 262 45 348 -12 43 -65 98 -119 123 -19 9 -42 22 -50
28 -42 32 -244 52 -361 36z m147 -547 c23 -6 44 -42 44 -76 0 -22 -65 -108
-81 -108 -6 0 -18 -7 -26 -16 -32 -31 -173 18 -193 67 -20 46 -9 91 26 111 28
17 35 17 72 4 38 -14 45 -13 84 4 49 22 46 22 74 14z"/>
<path d="M2650 2996 c-44 -13 -148 -66 -186 -96 -11 -8 -30 -30 -42 -47 -22
-31 -23 -41 -19 -150 5 -125 14 -183 28 -183 5 0 9 -6 9 -13 0 -19 29 -75 43
-84 7 -5 24 -24 38 -43 43 -57 66 -80 78 -80 8 0 6 10 -6 30 -9 17 -21 30 -25
30 -4 0 -8 9 -8 20 0 11 -4 20 -10 20 -5 0 -10 9 -10 20 0 11 -4 20 -10 20 -5
0 -10 11 -10 24 0 14 -4 28 -10 31 -5 3 -10 17 -10 30 0 13 -4 27 -10 30 -14
9 -13 97 2 145 8 24 22 44 38 52 14 7 27 16 30 19 3 4 15 9 27 13 22 7 41 -8
23 -19 -5 -3 -10 -18 -10 -33 0 -26 2 -27 56 -29 46 -2 60 -6 81 -29 40 -43
47 -73 28 -115 -21 -46 -49 -59 -125 -59 -34 0 -60 -4 -60 -10 0 -21 25 -90
32 -90 5 0 8 -7 8 -15 0 -18 86 -105 103 -105 7 0 19 -9 27 -20 8 -11 20 -20
27 -20 7 0 21 -4 31 -9 58 -29 232 -45 232 -21 0 6 9 10 20 10 11 0 20 4 20 9
0 5 10 13 23 17 35 11 92 78 107 126 7 24 17 48 20 53 9 13 23 159 24 252 1
40 5 73 9 73 14 0 67 -34 67 -42 0 -4 6 -8 13 -8 7 0 20 -9 30 -20 18 -21 37
-26 37 -10 0 64 -225 270 -296 270 -12 0 -44 11 -71 24 -26 13 -69 29 -95 35
-63 15 -242 13 -298 -3z m216 -552 c21 -14 33 -15 78 -6 70 14 93 7 106 -33 9
-26 8 -41 -4 -70 -13 -30 -27 -41 -81 -66 -37 -17 -75 -27 -85 -24 -55 18
-130 102 -130 147 0 57 64 85 116 52z"/>
<path d="M3646 1771 c-9 -13 33 -41 61 -41 13 0 23 -5 23 -11 0 -12 14 -11
160 12 80 12 197 6 214 -11 26 -26 124 -1 161 41 20 22 20 22 0 14 -79 -32
-89 -33 -165 -19 -89 16 -170 17 -225 4 -70 -16 -169 -14 -198 4 -15 11 -28
13 -31 7z"/>
<path d="M2732 941 c-18 -11 -39 -54 -34 -69 6 -20 39 -13 56 13 30 45 16 80
-22 56z"/>
<path d="M5120 894 c0 -8 5 -12 10 -9 6 3 10 10 10 16 0 5 -4 9 -10 9 -5 0
-10 -7 -10 -16z"/>
<path d="M4906 738 c-8 -18 -13 -35 -12 -38 11 -27 31 -60 36 -60 12 0 41 72
35 89 -2 9 -14 22 -25 29 -19 11 -22 10 -34 -20z"/>
<path d="M3505 940 c-3 -5 -1 -10 4 -10 6 0 11 5 11 10 0 6 -2 10 -4 10 -3 0
-8 -4 -11 -10z"/>
<path d="M3718 863 c7 -3 16 -2 19 1 4 3 -2 6 -13 5 -11 0 -14 -3 -6 -6z"/>
<path d="M3760 816 c0 -22 3 -27 11 -19 8 8 8 16 0 30 -9 16 -10 14 -11 -11z"/>
<path d="M4350 896 c0 -9 5 -16 10 -16 6 0 10 4 10 9 0 6 -4 13 -10 16 -5 3
-10 -1 -10 -9z"/>
<path d="M4422 890 c0 -14 2 -19 5 -12 2 6 2 18 0 25 -3 6 -5 1 -5 -13z"/>
<path d="M4263 882 c-15 -2 -23 -10 -23 -23 0 -11 5 -17 10 -14 6 4 8 10 5 15
-3 5 12 10 32 12 26 2 31 5 18 8 -11 3 -30 4 -42 2z"/>
<path d="M3280 590 c0 -5 5 -10 10 -10 6 0 10 5 10 10 0 6 -4 10 -10 10 -5 0
-10 -4 -10 -10z"/>
<path d="M4420 481 c0 -12 5 -21 10 -21 6 0 10 6 10 14 0 8 -4 18 -10 21 -5 3
-10 -3 -10 -14z"/>
<path d="M3934 340 c0 -69 1 -97 3 -63 2 35 2 91 0 126 -2 34 -3 6 -3 -63z"/>
<path d="M4560 390 c0 -5 9 -10 20 -10 11 0 20 5 20 10 0 6 -9 10 -20 10 -11
0 -20 -4 -20 -10z"/>
<path d="M3331 361 c13 -11 26 -17 28 -15 5 5 -30 33 -43 34 -4 0 2 -9 15 -19z"/>
<path d="M4518 373 c6 -2 18 -2 25 0 6 3 1 5 -13 5 -14 0 -19 -2 -12 -5z"/>
<path d="M3470 290 l-35 -7 35 -2 c19 0 42 4 50 9 13 9 13 10 0 9 -8 -1 -31
-5 -50 -9z"/>
<path d="M3953 260 c0 -25 2 -35 4 -22 2 12 2 32 0 45 -2 12 -4 2 -4 -23z"/>
<path d="M4062 280 c0 -14 2 -19 5 -12 2 6 2 18 0 25 -3 6 -5 1 -5 -13z"/>
<path d="M4268 293 c7 -3 16 -2 19 1 4 3 -2 6 -13 5 -11 0 -14 -3 -6 -6z"/>
<path d="M3648 263 c6 -2 18 -2 25 0 6 3 1 5 -13 5 -14 0 -19 -2 -12 -5z"/>
<path d="M4632 485 c0 -16 2 -22 5 -12 2 9 2 23 0 30 -3 6 -5 -1 -5 -18z"/>
<path d="M4716 4333 c-3 -10 -8 -23 -11 -29 -8 -16 44 -64 70 -64 28 0 48 22
48 55 0 37 -21 55 -63 55 -27 0 -39 -5 -44 -17z m74 -38 c0 -8 -9 -15 -20 -15
-11 0 -20 7 -20 15 0 8 9 15 20 15 11 0 20 -7 20 -15z"/>
<path d="M4872 4082 c-33 -33 -12 -83 36 -90 26 -4 46 14 55 48 8 33 -3 48
-40 56 -23 5 -36 1 -51 -14z m68 -31 c0 -10 -7 -22 -16 -25 -23 -9 -24 -8 -24
19 0 18 5 25 20 25 13 0 20 -7 20 -19z"/>
<path d="M4690 3831 c-19 -36 17 -85 55 -74 34 9 55 35 55 65 0 27 -2 28 -50
28 -38 0 -52 -4 -60 -19z m68 -18 c-5 -26 -38 -29 -38 -4 0 15 6 21 21 21 14
0 19 -5 17 -17z"/>
<path d="M1541 3694 c0 -11 3 -14 6 -6 3 7 2 16 -1 19 -3 4 -6 -2 -5 -13z"/>
</g>
</svg>
